REM DIRINDEX 1\3,1\2\4,1\2\5,1\2\6
REM DIRNAME folder01,folder02,folder03,folder04,folder05,folder06
TITLE ""
FILE "136.mp3" MP3
  TRACK 01 AUDIO
    TITLE "0:"
    INDEX 01 00:00:00
  TRACK 02 AUDIO
    TITLE "4:cjc137_5785"
    INDEX 01 00:00:03
  TRACK 03 AUDIO
    TITLE "0:"
    INDEX 01 00:01:05
  TRACK 04 AUDIO
    TITLE "6:cjc137_5786"
    INDEX 01 00:01:17
  TRACK 05 AUDIO
    TITLE "0:"
    INDEX 01 00:02:00
  TRACK 06 AUDIO
    TITLE "5:cjc137_5787"
    INDEX 01 00:02:08
  TRACK 07 AUDIO
    TITLE "0:"
    INDEX 01 00:03:12
  TRACK 08 AUDIO
    TITLE "4:cjc137_5788"
    INDEX 01 00:04:25
  TRACK 09 AUDIO
    TITLE "0:"
    INDEX 01 00:05:57
  TRACK 10 AUDIO
    TITLE "6:cjc137_5789"
    INDEX 01 00:05:63
  TRACK 11 AUDIO
    TITLE "0:"
    INDEX 01 00:07:07
  TRACK 12 AUDIO
    TITLE "5:cjc137_5790"
    INDEX 01 00:07:13
  TRACK 13 AUDIO
    TITLE "0:"
    INDEX 01 00:08:48
  TRACK 14 AUDIO
    TITLE "4:cjc137_5791"
    INDEX 01 00:09:55
  TRACK 15 AUDIO
    TITLE "0:"
    INDEX 01 00:10:61
  TRACK 16 AUDIO
    TITLE "6:cjc137_5792"
    INDEX 01 00:10:72
  TRACK 17 AUDIO
    TITLE "0:"
    INDEX 01 00:12:24
  TRACK 18 AUDIO
    TITLE "5:cjc137_5793"
    INDEX 01 00:12:28
  TRACK 19 AUDIO
    TITLE "0:"
    INDEX 01 00:13:35
  TRACK 20 AUDIO
    TITLE "4:cjc137_5794"
    INDEX 01 00:14:45
  TRACK 21 AUDIO
    TITLE "0:"
    INDEX 01 00:15:60
  TRACK 22 AUDIO
    TITLE "6:cjc137_5795"
    INDEX 01 00:15:64
  TRACK 23 AUDIO
    TITLE "0:"
    INDEX 01 00:17:16
  TRACK 24 AUDIO
    TITLE "5:cjc137_5796"
    INDEX 01 00:17:23
  TRACK 25 AUDIO
    TITLE "0:"
    INDEX 01 00:18:35
  TRACK 26 AUDIO
    TITLE "4:cjc137_5797"
    INDEX 01 00:19:44
  TRACK 27 AUDIO
    TITLE "0:"
    INDEX 01 00:20:63
  TRACK 28 AUDIO
    TITLE "6:cjc137_5798"
    INDEX 01 00:20:71
  TRACK 29 AUDIO
    TITLE "0:"
    INDEX 01 00:22:25
  TRACK 30 AUDIO
    TITLE "5:cjc137_5799"
    INDEX 01 00:22:32
  TRACK 31 AUDIO
    TITLE "0:"
    INDEX 01 00:23:51
  TRACK 32 AUDIO
    TITLE "4:cjc137_5800"
    INDEX 01 00:24:59
  TRACK 33 AUDIO
    TITLE "0:"
    INDEX 01 00:26:24
  TRACK 34 AUDIO
    TITLE "6:cjc137_5801"
    INDEX 01 00:26:28
  TRACK 35 AUDIO
    TITLE "0:"
    INDEX 01 00:27:61
  TRACK 36 AUDIO
    TITLE "5:cjc137_5802"
    INDEX 01 00:27:65
  TRACK 37 AUDIO
    TITLE "0:"
    INDEX 01 00:29:29
  TRACK 38 AUDIO
    TITLE "4:cjc137_5803"
    INDEX 01 00:30:36
  TRACK 39 AUDIO
    TITLE "0:"
    INDEX 01 00:31:51
  TRACK 40 AUDIO
    TITLE "6:cjc137_5804"
    INDEX 01 00:31:57
  TRACK 41 AUDIO
    TITLE "0:"
    INDEX 01 00:32:50
  TRACK 42 AUDIO
    TITLE "5:cjc137_5805"
    INDEX 01 00:32:56
  TRACK 43 AUDIO
    TITLE "0:"
    INDEX 01 00:33:71
  TRACK 44 AUDIO
    TITLE "4:cjc137_5806"
    INDEX 01 00:35:04
  TRACK 45 AUDIO
    TITLE "0:"
    INDEX 01 00:36:09
  TRACK 46 AUDIO
    TITLE "6:cjc137_5807"
    INDEX 01 00:36:19
  TRACK 47 AUDIO
    TITLE "0:"
    INDEX 01 00:37:26
  TRACK 48 AUDIO
    TITLE "5:cjc137_5808"
    INDEX 01 00:37:36
  TRACK 49 AUDIO
    TITLE "0:"
    INDEX 01 00:38:39
  TRACK 50 AUDIO
    TITLE "4:cjc137_5809"
    INDEX 01 00:39:51
  TRACK 51 AUDIO
    TITLE "0:"
    INDEX 01 00:40:60
  TRACK 52 AUDIO
    TITLE "6:cjc137_5810"
    INDEX 01 00:40:70
  TRACK 53 AUDIO
    TITLE "0:"
    INDEX 01 00:41:55
  TRACK 54 AUDIO
    TITLE "5:cjc137_5811"
    INDEX 01 00:41:61
  TRACK 55 AUDIO
    TITLE "0:"
    INDEX 01 00:42:72
  TRACK 56 AUDIO
    TITLE "4:cjc137_5812"
    INDEX 01 00:44:07
  TRACK 57 AUDIO
    TITLE "0:"
    INDEX 01 00:45:18
  TRACK 58 AUDIO
    TITLE "6:cjc137_5813"
    INDEX 01 00:45:22
  TRACK 59 AUDIO
    TITLE "0:"
    INDEX 01 00:46:68
  TRACK 60 AUDIO
    TITLE "5:cjc137_5814"
    INDEX 01 00:46:74
  TRACK 61 AUDIO
    TITLE "0:"
    INDEX 01 00:48:12
  TRACK 62 AUDIO
    TITLE "4:cjc137_5815"
    INDEX 01 00:49:20
  TRACK 63 AUDIO
    TITLE "0:"
    INDEX 01 00:50:35
  TRACK 64 AUDIO
    TITLE "6:cjc137_5816"
    INDEX 01 00:50:42
  TRACK 65 AUDIO
    TITLE "0:"
    INDEX 01 00:51:44
  TRACK 66 AUDIO
    TITLE "5:cjc137_5817"
    INDEX 01 00:51:50
  TRACK 67 AUDIO
    TITLE "0:"
    INDEX 01 00:52:67
  TRACK 68 AUDIO
    TITLE "4:cjc137_5818"
    INDEX 01 00:54:03
  TRACK 69 AUDIO
    TITLE "0:"
    INDEX 01 00:55:18
  TRACK 70 AUDIO
    TITLE "6:cjc137_5819"
    INDEX 01 00:55:28
  TRACK 71 AUDIO
    TITLE "0:"
    INDEX 01 00:56:53
  TRACK 72 AUDIO
    TITLE "5:cjc137_5820"
    INDEX 01 00:56:63
  TRACK 73 AUDIO
    TITLE "0:"
    INDEX 01 00:58:03
  TRACK 74 AUDIO
    TITLE "4:cjc137_5821"
    INDEX 01 00:59:14
  TRACK 75 AUDIO
    TITLE "0:"
    INDEX 01 01:00:51
  TRACK 76 AUDIO
    TITLE "6:cjc137_5822"
    INDEX 01 01:00:57
  TRACK 77 AUDIO
    TITLE "0:"
    INDEX 01 01:02:06
  TRACK 78 AUDIO
    TITLE "5:cjc137_5823"
    INDEX 01 01:02:12
  TRACK 79 AUDIO
    TITLE "0:"
    INDEX 01 01:03:51
  TRACK 80 AUDIO
    TITLE "4:cjc137_5824"
    INDEX 01 01:04:56
  TRACK 81 AUDIO
    TITLE "0:"
    INDEX 01 01:05:73
  TRACK 82 AUDIO
    TITLE "6:cjc137_5825"
    INDEX 01 01:06:06
  TRACK 83 AUDIO
    TITLE "0:"
    INDEX 01 01:07:25
  TRACK 84 AUDIO
    TITLE "5:cjc137_5826"
    INDEX 01 01:07:29
  TRACK 85 AUDIO
    TITLE "0:"
    INDEX 01 01:08:46
  TRACK 86 AUDIO
    TITLE "4:cjc137_5827"
    INDEX 01 01:09:57
  TRACK 87 AUDIO
    TITLE "0:"
    INDEX 01 01:10:69
  TRACK 88 AUDIO
    TITLE "6:cjc137_5828"
    INDEX 01 01:11:00
  TRACK 89 AUDIO
    TITLE "0:"
    INDEX 01 01:12:28
  TRACK 90 AUDIO
    TITLE "5:cjc137_5829"
    INDEX 01 01:12:34
  TRACK 91 AUDIO
    TITLE "0:"
    INDEX 01 01:13:47
  TRACK 92 AUDIO
    TITLE "4:cjc137_5830"
    INDEX 01 01:14:55
  TRACK 93 AUDIO
    TITLE "0:"
    INDEX 01 01:15:66
  TRACK 94 AUDIO
    TITLE "6:cjc137_5831"
    INDEX 01 01:15:74
  TRACK 95 AUDIO
    TITLE "0:"
    INDEX 01 01:16:71
  TRACK 96 AUDIO
    TITLE "5:cjc137_5832"
    INDEX 01 01:17:02
  TRACK 97 AUDIO
    TITLE "0:"
    INDEX 01 01:18:13
  TRACK 98 AUDIO
    TITLE "4:cjc137_5833"
    INDEX 01 01:19:23
  TRACK 99 AUDIO
    TITLE "0:"
    INDEX 01 01:20:38
  TRACK 100 AUDIO
    TITLE "6:cjc137_5834"
    INDEX 01 01:20:46
  TRACK 101 AUDIO
    TITLE "0:"
    INDEX 01 01:21:61
  TRACK 102 AUDIO
    TITLE "5:cjc137_5835"
    INDEX 01 01:21:67
  TRACK 103 AUDIO
    TITLE "0:"
    INDEX 01 01:23:09
  TRACK 104 AUDIO
    TITLE "4:cjc137_5836"
    INDEX 01 01:24:20
  TRACK 105 AUDIO
    TITLE "0:"
    INDEX 01 01:25:53
  TRACK 106 AUDIO
    TITLE "6:cjc137_5837"
    INDEX 01 01:25:60
  TRACK 107 AUDIO
    TITLE "0:"
    INDEX 01 01:28:02
  TRACK 108 AUDIO
    TITLE "5:cjc137_5838"
    INDEX 01 01:28:10
  TRACK 109 AUDIO
    TITLE "0:"
    INDEX 01 01:29:43
  TRACK 110 AUDIO
    TITLE "4:cjc137_5839"
    INDEX 01 01:30:52
  TRACK 111 AUDIO
    TITLE "0:"
    INDEX 01 01:31:61
  TRACK 112 AUDIO
    TITLE "6:cjc137_5840"
    INDEX 01 01:31:65
  TRACK 113 AUDIO
    TITLE "0:"
    INDEX 01 01:32:66
  TRACK 114 AUDIO
    TITLE "5:cjc137_5841"
    INDEX 01 01:32:72
  TRACK 115 AUDIO
    TITLE "0:"
    INDEX 01 01:34:06
  TRACK 116 AUDIO
    TITLE "4:cjc137_5842"
    INDEX 01 01:35:12
  TRACK 117 AUDIO
    TITLE "0:"
    INDEX 01 01:36:15
  TRACK 118 AUDIO
    TITLE "6:cjc137_5843"
    INDEX 01 01:36:21
  TRACK 119 AUDIO
    TITLE "0:"
    INDEX 01 01:37:07
  TRACK 120 AUDIO
    TITLE "5:cjc137_5844"
    INDEX 01 01:37:11
  TRACK 121 AUDIO
    TITLE "0:"
    INDEX 01 01:38:14
